HIERARCHY
ROOT Hips
{
	OFFSET -3.958830 18.904000 13.208200
	CHANNELS 6 Xposition Yposition Zposition Zrotation Yrotation Xrotation 
	JOINT LHipJoint
	{
		OFFSET 0.000000 0.000000 0.000000
		CHANNELS 3 Zrotation Yrotation Xrotation
		JOINT LeftUpLeg
		{
			OFFSET 1.800000 -1.400000 0.085000
			CHANNELS 3 Zrotation Yrotation Xrotation
			JOINT LeftLeg
			{
				OFFSET 2.215000 -6.000000 0.000000
				CHANNELS 3 Zrotation Yrotation Xrotation
				JOINT LeftFoot
				{
					OFFSET 2.500000 -6.900000 0.000000
					CHANNELS 3 Zrotation Yrotation Xrotation
					JOINT LeftToeBase
					{
						OFFSET 0.200000 -0.500000 1.950000
						CHANNELS 3 Zrotation Yrotation Xrotation
						End Site
						{
							OFFSET 0.000000 0.000000 0.000000
						}
					}
				}
			}
		}
	}
	JOINT RHipJoint
	{
		OFFSET 0.000000 0.000000 0.000000
		CHANNELS 3 Zrotation Yrotation Xrotation
		JOINT RightUpLeg
		{
			OFFSET -1.800000 -1.400000 0.085000
			CHANNELS 3 Zrotation Yrotation Xrotation
			JOINT RightLeg
			{
				OFFSET -2.215000 -6.000000 0.000000
				CHANNELS 3 Zrotation Yrotation Xrotation
				JOINT RightFoot
				{
					OFFSET -2.500000 -6.900000 0.000000
					CHANNELS 3 Zrotation Yrotation Xrotation
					JOINT RightToeBase
					{
						OFFSET -0.200000 -0.500000 1.950000
						CHANNELS 3 Zrotation Yrotation Xrotation
						End Site
						{
							OFFSET 0.000000 0.000000 0.000000
						}
					}
				}
			}
		}
	}
	JOINT LowerBack
	{
		OFFSET 0.000000 0.000000 0.000000
		CHANNELS 3 Zrotation Yrotation Xrotation
		JOINT Spine
		{
			OFFSET -0.087000 1.940000 -0.288900
			CHANNELS 3 Zrotation Yrotation Xrotation
			JOINT Spine1
			{
				OFFSET 0.000000 1.950000 0.060000
				CHANNELS 3 Zrotation Yrotation Xrotation
				JOINT Neck
				{
					OFFSET 0.000000 0.000000 0.000000
					CHANNELS 3 Zrotation Yrotation Xrotation
					JOINT Neck1
					{
						OFFSET 0.000000 1.600000 0.340000
						CHANNELS 3 Zrotation Yrotation Xrotation
						JOINT Head
						{
							OFFSET 0.000000 1.667000 -0.240000
							CHANNELS 3 Zrotation Yrotation Xrotation
							End Site
							{
								OFFSET 0.000000 0.000000 0.000000
							}
						}
					}
				}
				JOINT LeftShoulder
				{
					OFFSET 0.000000 0.000000 0.000000
					CHANNELS 3 Zrotation Yrotation Xrotation
					JOINT LeftArm
					{
						OFFSET 2.700000 1.550000 -0.730000
						CHANNELS 3 Zrotation Yrotation Xrotation
						JOINT LeftForeArm
						{
							OFFSET 5.450000 0.000000 0.000000
							CHANNELS 3 Zrotation Yrotation Xrotation
							JOINT LeftHand
							{
								OFFSET 3.450000 0.000000 0.000000
								CHANNELS 3 Zrotation Yrotation Xrotation
								JOINT LeftHandIndex1
								{
									OFFSET 0.750000 0.000000 0.000000
									CHANNELS 3 Zrotation Yrotation Xrotation
									End Site
									{
										OFFSET 0.000000 0.000000 0.000000
									}
								}
							}
						}
					}
				}
				JOINT RightShoulder
				{
					OFFSET 0.000000 0.000000 0.000000
					CHANNELS 3 Zrotation Yrotation Xrotation
					JOINT RightArm
					{
						OFFSET -2.700000 1.550000 -0.730000
						CHANNELS 3 Zrotation Yrotation Xrotation
						JOINT RightForeArm
						{
							OFFSET -5.450000 0.000000 0.000000
							CHANNELS 3 Zrotation Yrotation Xrotation
							JOINT RightHand
							{
								OFFSET -3.450000 0.000000 0.000000
								CHANNELS 3 Zrotation Yrotation Xrotation
								JOINT RightHandIndex1
								{
									OFFSET -0.750000 0.000000 0.000000
									CHANNELS 3 Zrotation Yrotation Xrotation
									End Site
									{
										OFFSET 0.000000 0.000000 0.000000
									}
								}
							}
						}
					}
				}
			}
		}
	}
}
MOTION
Frames: 7
Frame Time: 0.016667
-10.014710 16.956210 -2.408750 -9.945994 -6.572625 -1.996882 -15.170834 13.413551 4.631623 24.111348 0.107436 -13.982778 -5.754425 3.726731 -6.293878 -0.395877 5.477101 2.654119 -0.063720 -0.280830 -0.092640 18.091544 -10.417296 1.384168 -22.906923 1.944246 -10.781173 4.168567 -8.295685 27.993320 -0.547634 -5.050811 2.357780 -0.230000 0.586530 0.495290 -3.330107 -4.024258 -8.078796 23.393742 -8.191245 28.628916 -17.403817 -0.728059 8.298552 13.572459 -6.745452 -18.115557 -26.101749 20.662421 46.664550 -4.970410 9.493780 -9.563020 -19.875556 -16.992319 4.804078 -45.951112 -9.425957 0.089840 7.200824 -5.344076 -1.471566 -4.003881 2.542810 0.867290 0.172680 0.224180 0.084650 -6.704973 22.187685 12.354669 31.088034 2.850512 -4.821321 -13.467219 -2.475689 0.736757 2.587464 -0.805055 -0.296630 0.419130 0.452490 -0.002350 
-9.830730 17.036790 -2.349830 -11.012636 -6.964067 -2.025522 -15.110476 13.179350 4.501706 24.372209 0.263873 -13.298601 -6.636384 3.899931 -5.740471 -0.427356 5.532664 2.622318 -0.022350 -0.231740 -0.053750 18.191227 -10.307755 1.652218 -23.759766 3.205506 -13.348175 7.594078 -10.942832 34.870104 -0.739191 -6.210712 1.919846 -0.187930 0.543380 0.460550 -3.558956 -3.604436 -8.100635 25.393913 -8.697221 28.384690 -18.084144 -0.671361 9.155977 13.334459 -6.675423 -18.263063 -25.714951 20.566416 47.415106 -4.719500 9.206510 -10.994700 -20.195157 -17.769270 4.948335 -45.285411 -9.370254 -0.392045 5.890964 -7.495012 -1.646570 -3.934893 2.517990 0.903610 0.135450 0.244180 0.082350 -6.026629 22.704629 12.669544 29.691873 3.090961 -4.387158 -12.520717 -1.796474 0.646930 2.550061 -0.772258 -0.315150 0.446060 0.431510 -0.026540 
-9.662570 17.110230 -2.282530 -12.170833 -7.667878 -1.366788 -15.087203 12.852464 4.357893 24.765771 0.380141 -12.918987 -7.304998 4.019026 -5.586172 -0.430485 5.612772 2.586597 -0.007370 -0.213720 -0.049790 18.291625 -9.945335 2.127137 -24.428445 4.998085 -16.695065 11.919573 -14.857098 42.421678 -1.061385 -7.842839 1.366745 -0.169000 0.537800 0.456950 -3.744097 -3.345020 -8.227569 27.236977 -8.889962 27.636844 -18.276968 -0.546374 9.483184 13.125806 -6.634124 -18.138202 -25.309120 20.565313 47.818542 -4.768200 9.219490 -10.876470 -21.205588 -18.186680 4.909823 -44.602501 -9.378392 -0.506065 5.177796 -8.255565 -1.674500 -3.929647 2.526608 0.898640 0.140110 0.235920 0.083170 -4.732057 22.856280 12.711645 27.624992 3.477620 -4.194220 -13.021486 -1.998455 0.575967 2.542723 -0.795019 -0.316800 0.442380 0.428080 -0.033300 
-9.516720 17.173750 -2.224390 -13.061887 -7.729397 -1.371976 -15.083238 12.599013 4.102968 24.776773 0.527606 -12.503217 -7.650748 4.165135 -4.781831 -0.411358 5.539410 2.600606 0.080600 -0.093320 0.007870 18.363101 -9.504951 2.739182 -25.387092 6.657995 -19.195120 17.341614 -20.212347 49.318672 -1.592477 -9.707637 0.802904 -0.123120 0.471480 0.453590 -3.866273 -3.261759 -8.391139 28.404703 -9.097093 27.970807 -18.345758 -0.361425 9.118759 12.885673 -6.455239 -17.938906 -25.020552 20.460862 49.099218 -4.764830 8.946900 -12.688230 -21.785188 -18.129474 4.649201 -43.854853 -9.632215 -0.868148 3.771294 -10.010034 -1.713965 -3.845355 2.535092 0.913610 0.092310 0.300720 0.113030 -3.775061 22.581107 12.662457 26.619838 3.443912 -4.076649 -13.035117 -2.229027 0.581768 2.558793 -0.802418 -0.272640 0.441840 0.358150 -0.024710 
-9.386570 17.217280 -2.165240 -14.020913 -7.400686 -0.876569 -15.080111 12.300847 3.821286 24.572412 0.576496 -12.536365 -7.490920 4.208173 -4.314562 -0.413245 5.430919 2.656126 0.098890 -0.065520 0.034740 18.439387 -8.963387 3.478828 -26.462478 8.203726 -21.909189 24.709752 -27.294773 54.456346 -2.170737 -11.604525 0.311793 -0.106360 0.455760 0.423720 -3.993988 -3.242232 -8.597674 29.452768 -9.124837 27.407001 -18.251601 -0.192912 9.034230 12.682743 -6.015469 -17.806310 -23.547369 19.835511 50.303361 -5.044260 9.126710 -12.363270 -22.742702 -18.528819 4.555667 -42.484805 -9.820339 -0.884505 2.156583 -10.648524 -1.569482 -3.814460 2.517165 0.904410 0.086010 0.305180 0.130570 -2.560176 22.612694 12.737944 25.296967 3.310564 -3.987543 -13.236643 -1.832596 0.481584 2.557444 -0.817470 -0.280540 0.453330 0.317210 -0.029540 
-9.263320 17.272830 -2.115080 -14.423691 -6.731064 -1.181597 -15.101079 12.244315 3.479177 23.691777 0.652229 -12.341829 -6.539806 4.205319 -3.342132 -0.485612 5.259848 2.716960 0.105440 -0.070160 0.048700 18.452252 -8.518813 4.131921 -27.792277 9.178920 -23.516257 32.919637 -34.625413 56.776350 -2.654941 -12.978998 -0.012743 -0.100660 0.445670 0.444660 -3.981050 -3.487567 -8.751787 29.193412 -9.154197 27.729441 -17.407298 -0.414021 9.358080 12.601217 -5.642992 -17.650405 -22.295889 19.350901 51.435766 -6.163290 9.237130 -12.673950 -23.625947 -19.110046 4.585695 -41.384353 -10.031359 -0.963458 1.408642 -11.128380 -1.566701 -3.823498 2.515583 0.919890 0.096970 0.310260 0.123230 -1.587918 22.912981 12.753296 23.476291 3.990268 -3.889454 -13.709416 -1.125591 0.316797 2.515765 -0.834464 -0.284680 0.442370 0.325880 -0.048250 
-9.152190 17.305980 -2.048470 -14.952053 -5.699265 -1.244559 -15.123531 12.218249 3.237092 23.199081 0.645522 -12.633473 -6.021417 4.259385 -2.131983 -0.488384 5.090908 2.749147 0.130630 -0.044620 0.068740 18.449474 -8.187781 4.606956 -28.653336 9.248894 -24.424996 42.862556 -41.889688 55.738641 -2.967492 -13.600599 -0.143039 -0.100560 0.405150 0.485000 -3.940329 -3.744024 -8.870125 29.040255 -9.025609 27.462327 -16.513652 -0.657210 9.069527 12.650226 -5.388329 -17.103005 -20.959331 18.589343 52.071711 -6.867630 9.218800 -12.246760 -24.178478 -18.635811 4.311414 -41.450217 -10.117319 -1.463885 0.688506 -12.683946 -1.624911 -3.809836 2.602849 0.888530 0.097580 0.323340 0.115450 -1.231286 22.335681 12.466186 23.248930 4.488131 -3.873358 -14.235599 0.092973 0.112719 2.505203 -0.905334 -0.233180 0.367300 0.307490 -0.045410 
